HIERARCHY
ROOT Hips
{
	OFFSET -10.056300 7.733760 -472.550000
	CHANNELS 6 Xposition Yposition Zposition Zrotation Yrotation Xrotation 
	JOINT Spine
	{
		OFFSET 0.000000 0.000000 0.000000
		CHANNELS 3 Zrotation Yrotation Xrotation
		JOINT Spine1
		{
			OFFSET 19.000000 0.000000 0.000000
			CHANNELS 3 Zrotation Yrotation Xrotation
			JOINT Neck
			{
				OFFSET 22.500000 0.600000 0.000000
				CHANNELS 3 Zrotation Yrotation Xrotation
				JOINT Head
				{
					OFFSET 14.000000 0.030878 0.000000
					CHANNELS 3 Zrotation Yrotation Xrotation
					End Site
					{
						OFFSET 17.000000 0.000000 0.000000
					}
				}
			}
			JOINT LeftShoulder
			{
				OFFSET 19.800000 3.700000 4.300000
				CHANNELS 3 Zrotation Yrotation Xrotation
				JOINT LeftArm
				{
					OFFSET 8.000000 0.000000 0.000000
					CHANNELS 3 Zrotation Yrotation Xrotation
					JOINT LeftForeArm
					{
						OFFSET 15.200000 0.000000 0.000000
						CHANNELS 3 Zrotation Yrotation Xrotation
						JOINT LeftHand
						{
							OFFSET 17.800000 0.000000 0.000000
							CHANNELS 3 Zrotation Yrotation Xrotation
							End Site
							{
								OFFSET 7.200000 0.000000 0.000000
							}
						}
					}
				}
			}
			JOINT RightShoulder
			{
				OFFSET 19.800000 3.700000 -4.300000
				CHANNELS 3 Zrotation Yrotation Xrotation
				JOINT RightArm
				{
					OFFSET 8.000000 0.000000 0.151654
					CHANNELS 3 Zrotation Yrotation Xrotation
					JOINT RightForeArm
					{
						OFFSET 15.200000 0.000000 0.000000
						CHANNELS 3 Zrotation Yrotation Xrotation
						JOINT RightHand
						{
							OFFSET 17.800000 0.000000 0.000000
							CHANNELS 3 Zrotation Yrotation Xrotation
							End Site
							{
								OFFSET 7.200000 0.000000 0.000000
							}
						}
					}
				}
			}
		}
	}
	JOINT LeftUpLeg
	{
		OFFSET 5.984250 -7.666000 4.788790
		CHANNELS 3 Zrotation Yrotation Xrotation
		JOINT LeftLeg
		{
			OFFSET 16.000000 0.000000 0.000000
			CHANNELS 3 Zrotation Yrotation Xrotation
			JOINT LeftFoot
			{
				OFFSET 18.000000 0.000000 0.000000
				CHANNELS 3 Zrotation Yrotation Xrotation
				End Site
				{
					OFFSET 0.000000 -10.800000 0.000000
				}
			}
		}
	}
	JOINT RightUpLeg
	{
		OFFSET 5.984250 -7.665980 -4.788790
		CHANNELS 3 Zrotation Yrotation Xrotation
		JOINT RightLeg
		{
			OFFSET 16.000000 0.000000 0.000000
			CHANNELS 3 Zrotation Yrotation Xrotation
			JOINT RightFoot
			{
				OFFSET 18.000000 0.000000 0.000000
				CHANNELS 3 Zrotation Yrotation Xrotation
				End Site
				{
					OFFSET 0.000000 -10.800000 0.000000
				}
			}
		}
	}
	JOINT Tail
	{
		OFFSET 6.836960 -0.722574 0.000000
		CHANNELS 3 Zrotation Yrotation Xrotation
		JOINT Tail1
		{
			OFFSET 12.000000 0.000000 0.000000
			CHANNELS 3 Zrotation Yrotation Xrotation
			End Site
			{
				OFFSET 12.000000 0.000000 0.000000
			}
		}
	}
}
MOTION
Frames: 11
Frame Time: 0.033333
-542475.812500 -200251.968750 -360231.531250 69.169815 -13.965414 13.578478 -148.135895 -7.038365 7.747147 -73.934212 -21.671803 -3.739235 -20.974325 -9.113939 -0.847481 -26.446102 17.395491 174.810501 75.505112 -39.067932 -109.732651 40.630322 -52.044571 51.386570 -48.832642 -72.932312 140.216736 -149.963409 -28.998007 174.258575 -12.062637 28.134443 -155.800140 74.281921 -63.144657 109.174919 123.285851 -14.962890 -127.117378 76.007187 41.772247 -33.223831 -159.744492 -34.930653 9.935293 92.551315 17.249083 84.358696 118.016411 -43.619366 -59.113632 -158.727402 -8.105600 25.454529 41.739048 72.136795 -7.196476 107.529671 -32.846897 -54.026783 109.791916 -38.259438 44.821129 12.790364 31.448935 67.166138 
-543507.500000 -204739.875000 -363957.187500 76.457245 -14.654259 18.378386 -148.454269 -7.438759 8.415593 -73.483177 -20.640219 -4.465355 -20.427036 -8.441940 -1.650561 -25.394489 16.156656 174.024155 74.685730 -42.584702 -107.809807 37.958614 -52.034954 54.725773 -35.043713 -77.062584 126.929581 -151.061829 -27.881861 166.893311 -16.241760 26.311981 -155.604080 83.719688 -61.277203 103.947266 121.440498 -14.219591 -125.123360 70.986481 51.623245 -29.901890 -162.714920 -35.226055 10.612430 96.518280 14.324197 81.647697 116.882507 -44.219204 -60.173744 -159.460434 -9.251912 25.695396 31.619793 68.584587 -15.694049 115.484138 -26.279106 -52.868061 113.086411 -33.483746 37.377689 8.277960 31.410570 58.876705 
-542298.687500 -211608.328125 -367226.531250 83.035088 -7.740483 29.450090 -148.999268 -7.733900 9.420394 -82.403206 -11.579299 4.930221 -16.563587 -6.801608 -2.444773 -11.635189 18.555582 -171.174454 88.341911 -48.588032 -119.400185 30.649580 -60.154667 56.111511 101.247093 -78.451988 -8.064204 -155.714691 -26.903463 161.181839 -35.584263 26.429153 -162.802277 88.480827 -54.536217 103.881569 121.240318 -13.997341 -123.429337 96.184814 66.331108 -4.646504 -166.346893 -34.233940 11.757901 101.252373 11.698636 78.579086 120.193718 -53.302032 -58.656677 -156.475647 -0.143636 27.098076 26.405041 79.700996 -19.118958 120.377693 -15.423555 -41.701996 121.108551 -22.542248 23.053900 0.678407 31.119167 39.855667 
-543990.187500 -212616.875000 -370516.500000 94.805855 -11.189393 24.773855 -142.675751 -12.457808 2.572855 -82.740692 -18.501276 5.181759 -23.715210 1.097472 1.735115 -18.827271 22.286900 -179.941223 81.665558 -60.289982 -112.000114 16.814249 -55.343704 74.994766 115.063385 -80.757622 -20.122566 -149.879578 -33.346199 158.476410 -32.672668 16.295670 -156.203323 90.489861 -60.086605 103.621712 134.594437 -10.681368 -122.076157 115.675507 65.702621 20.220079 -165.218323 -41.322414 18.080711 108.234047 -3.088575 73.376472 124.348152 -43.331890 -59.743580 -150.010788 -9.102289 31.344994 39.541775 66.912682 -4.698096 137.174240 -3.766426 -45.922878 123.209793 -25.483692 8.549911 -13.063194 29.436768 4.481863 
-551371.875000 -206274.484375 -373983.000000 88.195061 -10.917667 22.089478 -134.495300 -16.105270 -5.435258 -73.658646 -24.190567 1.836621 -31.330343 9.174308 6.018651 -25.725983 23.986540 170.039764 71.662491 -54.539654 -102.125572 24.308294 -49.147449 71.968254 79.423370 -77.510208 13.009593 -141.762985 -29.985563 149.721817 -30.585398 5.821199 -149.496948 89.752396 -66.048218 104.417809 134.752014 -1.806580 -115.694954 113.427818 69.975212 24.803085 -175.075226 -31.788256 26.875034 100.624985 -6.569602 69.905823 131.567993 -41.008194 -76.141685 -153.265305 -16.577620 37.643261 26.523190 54.614601 -9.405187 138.425110 -0.134772 -50.418026 135.062363 -26.236933 -9.942811 -14.083594 15.633657 -38.111935 
-562099.750000 -199034.703125 -377450.656250 88.804131 -11.912377 24.986431 -134.814957 -16.782751 -5.196840 -72.894409 -22.858015 2.032828 -31.664001 7.744710 5.137405 -22.726185 19.534357 171.228638 73.786713 -64.396889 -113.684853 29.390022 -48.137264 61.747852 79.096214 -62.804283 21.044123 -145.341232 -22.567249 150.906036 -34.699997 0.442903 -148.339645 84.289986 -62.881710 106.932404 138.630402 -3.433998 -112.456726 126.943199 73.027168 44.109501 -176.324448 -29.456470 27.801945 100.543999 -6.885757 66.859360 132.815887 -40.762329 -78.337219 -149.655136 -18.089430 37.034542 22.889376 50.523911 -13.020552 149.263626 2.072205 -47.297970 141.411880 -23.405491 -25.730528 -13.870779 5.890089 -81.976288 
-569903.375000 -188218.093750 -382335.218750 82.240547 -11.763207 28.719315 -135.168533 -17.423985 -4.926234 -71.872955 -21.011574 1.689922 -31.639071 6.661326 8.399349 -21.063616 15.870603 172.115738 82.165062 -61.847122 -122.038506 28.035706 -47.241127 63.852245 85.757957 -58.752266 14.209808 -149.188828 -18.814739 153.952957 -39.260227 -4.926943 -146.539627 69.678078 -59.057903 113.492378 140.461884 -6.123512 -107.353325 118.956482 84.898148 36.943890 -176.490173 -28.158445 28.851339 96.287422 -6.122512 64.700493 133.092789 -40.066792 -77.550140 -145.512009 -19.660824 36.444504 20.964516 46.691814 -15.966271 160.596527 1.374351 -43.173962 150.558746 -20.786531 -39.793030 -8.152977 0.400525 -115.805862 
-579097.000000 -183057.593750 -387672.375000 79.966202 -12.089214 29.343506 -135.624939 -17.989704 -4.677567 -70.622612 -18.781229 1.031200 -32.204369 4.100581 5.421959 -21.432850 11.319386 171.923004 90.041306 -56.334240 -129.588226 16.192663 -42.582741 72.252510 92.448875 -54.875252 6.540567 -152.134064 -18.135239 155.261871 -43.986053 -9.424993 -144.483917 48.785160 -53.821083 121.362785 144.062408 -13.153499 -101.596970 45.156620 83.675285 -30.299232 -177.793594 -37.180359 30.967932 88.352150 -4.317130 63.387115 129.974396 -43.556255 -77.064445 -141.635605 -20.963234 35.522072 20.365490 43.461731 -18.663507 171.444641 -2.754679 -38.391888 160.495300 -21.047876 -47.953667 -6.813579 1.190694 -133.488770 
-588608.875000 -181584.656250 -393513.968750 74.708389 -2.684880 35.859566 -136.186417 -18.750832 -4.379827 -69.212753 -16.319523 0.391469 -31.508484 4.507634 12.121740 -23.189978 16.973787 174.616379 97.639038 -48.464073 -137.038895 12.254122 -41.249294 75.195580 101.799995 -49.213673 -4.463271 -160.215622 -21.458359 158.395966 -48.597958 -12.497211 -142.597519 19.100340 -37.450718 133.365799 145.506653 -22.726822 -96.990593 29.628429 74.397507 -41.868778 -175.617874 -38.978741 30.373501 79.111336 -2.874276 62.836296 120.607445 -45.198547 -66.084251 -139.208939 -21.721384 34.609768 21.132559 41.098335 -20.727795 177.903595 -2.572726 -33.938698 173.717636 -21.676910 -48.353729 -1.761744 2.234424 -139.427231 
-600590.750000 -178795.343750 -399965.937500 65.101006 -7.637606 39.296234 -145.015747 -15.634505 4.046102 -75.274925 -6.185256 1.621016 -23.524368 -5.277579 7.638984 -17.439135 10.174589 175.638855 116.503571 -32.628441 -146.640961 11.155597 -51.251793 76.257133 120.727669 -29.678812 -16.748394 -162.994598 -15.174108 153.497467 -58.821674 -9.785500 -146.164230 11.952737 -32.681835 123.717110 131.087402 -24.029243 -81.334679 60.306988 70.152954 -11.389882 -163.553726 -33.427349 20.089676 82.565948 -0.103382 62.730530 116.314194 -55.067719 -67.190285 -131.747833 -14.321927 27.821718 27.635674 48.547787 -25.861135 -172.508926 3.383833 -21.593214 -176.094391 -37.835552 -45.127342 -6.996588 -0.289861 -143.970428 
-611243.812500 -174803.812500 -406393.343750 59.439705 -6.681163 37.647770 -145.270035 -16.369062 4.127172 -73.417168 -3.124485 0.447037 -23.611137 -6.605581 7.996648 -19.409094 10.041158 173.740448 120.789665 -21.195539 -151.470886 5.471409 -51.801186 82.541939 129.636398 -12.477882 -24.038666 -164.865082 -14.572816 147.529434 -62.274910 -9.619688 -145.601791 -3.325389 -27.337229 125.106316 125.315727 -23.607613 -69.442917 65.315552 61.340096 -10.403773 -160.560211 -33.448868 18.501690 79.404350 -0.202201 64.513596 115.388458 -55.011425 -66.056999 -132.843002 -13.690751 27.665850 29.117693 47.965061 -27.109571 -169.613815 1.530170 -16.028084 -168.999908 -53.595585 -40.327286 -10.774241 -1.750751 -144.082520 
